<svg preserveAspectRatio="none" viewBox="0 0 115 90" fill="none" xmlns="http://www.w3.org/2000/svg">
<path d="M108.05 9.67478C107.838 9.47006 107.625 9.26533 107.625 9.26533C99.556 1.48581 87.6643 -0.151986 76.1974 3.53305C66.0045 6.80864 55.8117 7.62754 46.0435 5.98974C35.2136 4.14722 22.6849 8.03699 13.5538 17.0449C0.175679 30.3519 1.23743 48.3677 11.4303 61.0606C19.712 71.2968 39.673 91.3598 55.5993 89.9267C71.101 88.4936 94.2472 64.9503 104.015 53.4858C116.119 38.7456 119.305 21.1393 108.05 9.67478Z" fill="#BE2026"/>
<path d="M7.60829 6.3986C7.82064 6.19387 8.03299 6.19387 8.03299 5.98915C16.1023 -0.357308 27.3569 -1.17621 37.5498 2.71356C46.6809 5.98915 56.2367 7.42222 65.3678 6.3986C75.773 5.37497 87.0276 9.46946 95.097 17.8632C106.776 30.1466 104.653 46.1151 94.2476 56.7608C85.9659 65.3592 66.0049 81.7372 51.3526 79.8947C37.1251 77.8474 16.9517 55.9419 8.88239 45.2962C-1.73517 31.5797 -3.64633 15.8159 7.60829 6.3986Z" fill="#E11F26"/>
<path d="M92.1247 3.73805C91.9124 3.73805 91.7 3.53332 91.7 3.53332C84.6924 -1.17533 75.349 -0.970611 67.7043 2.91915C60.4844 6.60419 53.0521 8.44671 45.6198 8.44671C37.1258 8.44671 28.6317 12.7459 23.1106 20.7302C15.0412 32.1947 18.4389 45.2971 27.7823 53.6908C35.2146 60.242 53.0521 72.7301 64.5191 69.6593C75.7737 66.7931 89.7889 46.5254 95.31 36.6987C102.318 24.2105 102.105 10.6987 92.1247 3.73805Z" fill="#E94B4E"/>
<path d="M28.4198 29.4553H23.111V34.7781H19.9258V21.6758H23.111V26.7939H28.4198V21.6758H31.6051V34.7781H28.4198V29.4553Z" fill="white"/>
<path d="M35.2148 28.5098C35.2148 24.0059 37.7631 21.7539 41.373 21.7539C44.983 21.7539 47.5312 24.0059 47.5312 28.5098C47.5312 33.0137 44.983 35.2657 41.373 35.2657C37.7631 35.2657 35.2148 33.0137 35.2148 28.5098ZM44.5583 29.5334V27.6909C44.5583 25.6437 43.4965 24.4153 41.5854 24.4153C39.6742 24.4153 38.6125 25.6437 38.6125 27.6909V29.5334C38.6125 31.5807 39.6742 32.809 41.5854 32.809C43.2842 32.809 44.5583 31.5807 44.5583 29.5334Z" fill="white"/>
<path d="M51.5664 21.959H58.3616C60.6975 21.959 62.184 23.3921 62.184 25.2346C62.184 27.2818 60.9099 27.896 59.6358 28.1007V28.3054C60.9099 28.3054 62.821 29.1243 62.821 31.3763C62.821 33.4235 61.3346 35.0613 59.2111 35.0613H51.7788V21.959H51.5664ZM54.5393 27.2818H57.5122C58.3616 27.2818 58.7864 26.8724 58.7864 26.0535V25.4393C58.7864 24.6204 58.3616 24.211 57.5122 24.211H54.5393V27.2818ZM54.5393 32.6046H58.1493C58.9987 32.6046 59.4234 32.1952 59.4234 31.3763V30.7621C59.4234 29.9432 58.9987 29.5338 58.1493 29.5338H54.5393V32.6046Z" fill="white"/>
<path d="M75.1368 35.0613L74.075 31.9905H69.4033L68.3415 35.0613H65.1562L69.828 21.959H73.6503L78.322 35.0613H75.1368ZM71.7391 24.6204L70.0403 29.5338H73.2256L71.7391 24.6204Z" fill="white"/>
<path d="M81.5078 32.604H82.7819L83.8437 30.9662C84.2684 30.5568 84.4807 30.1473 85.3301 30.1473V29.9426C83.2066 29.7379 81.9325 28.3048 81.9325 26.2576C81.9325 23.8009 83.6313 22.1631 86.1795 22.1631H92.9748V35.2654H89.7895V30.5568H87.8783L85.5425 34.0371C84.6931 35.2654 84.056 35.4702 82.9943 35.4702H81.5078V32.604ZM89.7895 27.8954V24.4151H86.6042C85.7548 24.4151 85.1178 24.8245 85.1178 25.6434V26.667C85.1178 27.4859 85.7548 27.8954 86.6042 27.8954H89.7895Z" fill="white"/>
<path d="M19.5 51.4383H20.7741L22.2606 48.3674C22.6853 47.7532 23.11 47.3438 23.747 47.3438V47.1391C23.11 46.9343 22.6853 46.7296 22.2606 45.9107L21.1988 43.2493H19.9247V40.5879H21.1988C22.4729 40.5879 23.11 40.9973 23.747 42.2257L25.6582 45.9107H27.5693V40.5879H30.7546V45.9107H32.6658L34.5769 42.2257C35.214 41.2021 35.851 40.5879 37.1252 40.5879H38.1869V43.2493H36.9128L35.6387 45.706C35.214 46.5249 34.7893 46.7296 34.1522 46.9343V47.1391C34.7893 47.1391 35.4263 47.5485 35.6387 48.1627L37.1252 51.2336H38.3993V53.895H36.7005C35.6387 53.895 34.7893 53.4855 34.1522 52.2572L32.2411 48.5721H30.3299V53.895H27.5693V48.5721H25.6582L23.747 52.2572C23.11 53.4855 22.4729 53.895 21.1988 53.895H19.5V51.4383Z" fill="white"/>
<path d="M40.9492 40.793H43.9221V47.3442L43.4974 50.2103L44.9839 47.7536L49.6556 40.9977H52.4162V54.3048H49.4433V47.7536L49.868 44.8875L48.3815 47.3442L43.7098 54.1001H40.9492V40.793Z" fill="white"/>
<path d="M54.75 52.2575L56.8735 50.415C57.7229 51.2339 58.7847 51.6434 60.0588 51.6434C61.7576 51.6434 62.607 51.0292 62.607 50.2103V50.0056C62.607 48.9819 61.97 48.5725 60.4835 48.5725H57.9353V46.1158H60.2711C61.5452 46.1158 62.1823 45.7064 62.1823 44.6827C62.1823 43.8638 61.5452 43.2497 60.0588 43.2497C58.997 43.2497 57.7229 43.6591 57.0859 44.478L55.1747 42.6355C56.4488 41.4071 58.1476 40.793 60.0588 40.793C63.4564 40.793 65.5799 42.226 65.5799 44.478C65.5799 46.3205 64.3058 47.1394 62.607 47.3441V47.1394C64.3058 47.1394 65.7923 48.163 65.7923 50.0056C65.7923 52.4623 63.6688 54.1 60.0588 54.1C57.7229 54.3048 56.0241 53.6906 54.75 52.2575Z" fill="white"/>
<path d="M76.6224 48.5721H71.1013V53.895H67.916V40.5879H71.1013V45.9107H76.6224V40.5879H79.8077V53.895H76.6224V48.5721Z" fill="white"/>
<path d="M82.7812 40.793H85.9665V45.5016H89.7888C92.5494 45.5016 94.0359 47.1394 94.0359 49.8008C94.0359 52.2575 92.3371 54.1001 89.7888 54.1001H82.7812V40.793ZM89.3641 51.4386C90.2135 51.4386 90.8506 51.0292 90.8506 50.2103V49.3914C90.8506 48.5725 90.2135 48.163 89.3641 48.163H85.9665V51.6434H89.3641V51.4386Z" fill="white"/>
</svg>
