<svg viewBox="0 0 35 35" fill="none" xmlns="http://www.w3.org/2000/svg">
<path d="M27.5459 15C27.5459 22.2086 21.7986 28 14.773 28C7.74729 28 2 22.2086 2 15C2 7.79143 7.74729 2 14.773 2C21.7986 2 27.5459 7.79143 27.5459 15Z" stroke="#1B2733" stroke-width="4"/>
<path d="M33.5564 33.2568C34.3517 32.4809 34.3622 31.2055 33.5797 30.4167L26.6272 23.4081C25.8539 22.6285 24.5967 22.6182 23.8107 23.385L23.4436 23.7432C22.6483 24.5191 22.6378 25.7945 23.4203 26.5833L30.3728 33.5919C31.1461 34.3715 32.4033 34.3818 33.1893 33.615L33.5564 33.2568Z" fill="#1B2733"/>
</svg>
