<svg viewBox="0 0 20 20" fill="none" xmlns="http://www.w3.org/2000/svg">
<path d="M4.54667 0.00982857C4.10064 0.0256844 3.52579 0.0605793 3.26451 0.113316C2.86567 0.193857 2.48902 0.315969 2.17579 0.475615C1.80777 0.66317 1.47793 0.902468 1.19313 1.18683C0.90767 1.47174 0.667414 1.80189 0.479107 2.17045C0.319907 2.48201 0.197862 2.85636 0.116978 3.25294C0.0631806 3.51686 0.0276003 4.09599 0.0114714 4.5449C0.00556478 4.72165 0.00226554 4.89849 0.00157488 5.07534L0 14.9231C0 15.0322 0.00332227 15.2697 0.00982862 15.4534C0.0256836 15.8994 0.0605774 16.4742 0.113347 16.7355C0.193855 17.1343 0.316003 17.511 0.475614 17.8242C0.663203 18.1923 0.902464 18.522 1.18683 18.8069C1.47174 19.0923 1.80192 19.3326 2.17045 19.5209C2.48203 19.6801 2.85639 19.8021 3.25293 19.883C3.51685 19.9368 4.09602 19.9724 4.54492 19.9885C4.72833 19.9951 4.96582 19.9984 5.07533 19.9984L14.9231 20C15.0322 20 15.2697 19.9967 15.4533 19.9902C15.8993 19.9743 16.4742 19.9394 16.7355 19.8867C17.1343 19.8061 17.511 19.684 17.8242 19.5244C18.1922 19.3368 18.522 19.0975 18.8068 18.8132C19.0923 18.5282 19.3325 18.1981 19.5209 17.8295C19.68 17.518 19.8021 17.1436 19.883 16.7471C19.9368 16.4831 19.9724 15.9039 19.9885 15.4551C19.9951 15.2716 19.9984 15.0342 19.9984 14.9247L20 5.07691C20 4.96781 19.9967 4.73029 19.9901 4.54664C19.9742 4.10065 19.9394 3.5258 19.8866 3.26451C19.8061 2.86567 19.684 2.48903 19.5244 2.1758C19.3368 1.80774 19.0975 1.47794 18.8132 1.1931C18.5282 0.907707 18.198 0.667416 17.8295 0.479107C17.5179 0.319906 17.1436 0.197828 16.747 0.11698C16.4831 0.0631809 15.9039 0.0276012 15.4551 0.011507C15.2716 0.00489807 15.0341 0.00157738 14.9246 0.00157738L5.0769 0C4.90012 0.000669479 4.72336 0.0039444 4.54667 0.00982857Z" fill="#9DCFAC"/>
<path fill-rule="evenodd" clip-rule="evenodd" d="M13.4667 11.3162C13.2886 11.227 12.4128 10.7962 12.2495 10.7368C12.0862 10.6774 11.9675 10.6477 11.8487 10.8259C11.73 11.0042 11.3886 11.4053 11.2846 11.5242C11.1808 11.643 11.0769 11.6579 10.8987 11.5687C10.7206 11.4796 10.1466 11.2916 9.46623 10.6849C8.93665 10.2127 8.57914 9.62948 8.47523 9.45122C8.37134 9.27293 8.46418 9.17656 8.55338 9.08778C8.63348 9.00803 8.73149 8.87982 8.82056 8.77581C8.90963 8.67179 8.93932 8.59754 8.9987 8.4787C9.05808 8.35984 9.02839 8.25585 8.9838 8.16671C8.93932 8.07759 8.58307 7.20107 8.43462 6.84452C8.29003 6.49728 8.14317 6.54428 8.03384 6.53881C7.93003 6.53365 7.81117 6.53254 7.69241 6.53254C7.57365 6.53254 7.38069 6.57713 7.21737 6.75537C7.05411 6.93366 6.59394 7.36452 6.59394 8.24098C6.59394 9.11749 7.23224 9.96429 7.32129 10.0831C7.41038 10.202 8.57742 12.0007 10.3643 12.7721C10.7893 12.9555 11.1212 13.0651 11.3798 13.1472C11.8066 13.2827 12.1949 13.2636 12.5019 13.2177C12.8441 13.1666 13.5558 12.7869 13.7042 12.371C13.8526 11.955 13.8526 11.5984 13.8081 11.5242C13.7636 11.4499 13.6449 11.4053 13.4667 11.3162ZM10.2164 15.7526H10.214C9.15077 15.7522 8.10791 15.4667 7.19814 14.927L6.98176 14.7986L4.73907 15.3867L5.33769 13.2008L5.19679 12.9767C4.60364 12.0335 4.29038 10.9435 4.29082 9.82419C4.2921 6.55812 6.9503 3.90095 10.2188 3.90095C11.8015 3.90157 13.2893 4.51855 14.408 5.63821C15.5268 6.75789 16.1425 8.24619 16.1419 9.82899C16.1406 13.0953 13.4824 15.7526 10.2164 15.7526ZM15.2595 4.78738C13.9135 3.44025 12.1235 2.69801 10.2164 2.69727C6.28688 2.69727 3.08873 5.89419 3.08713 9.82373C3.08662 11.0798 3.4149 12.306 4.03874 13.3867L3.02734 17.0799L6.80665 16.0889C7.84794 16.6566 9.02032 16.9558 10.2135 16.9563H10.2165C14.1456 16.9563 17.344 13.759 17.3456 9.8294C17.3463 7.9251 16.6055 6.13448 15.2595 4.78738Z" fill="white"/>
</svg>
