<svg viewBox="0 0 20 20" fill="none" xmlns="http://www.w3.org/2000/svg">
<path d="M15.6813 0H4.31835C1.9371 0 0 1.93742 0 4.31835V15.6816C0 18.0626 1.93742 20 4.31835 20H15.6813C18.0626 20 20 18.0626 20 15.6816V4.31803C19.9997 1.9371 18.0626 0 15.6813 0ZM13.5239 3.19792C13.5239 2.81037 13.8411 2.49317 14.229 2.49317H16.3439C16.7317 2.49317 17.0489 2.81037 17.0489 3.19792V5.31312C17.0489 5.70067 16.7317 6.01787 16.3439 6.01787H14.229C13.8411 6.01787 13.5239 5.70067 13.5239 5.31312V3.19792ZM15.6813 18.9384H4.31835C2.52258 18.9384 1.06128 17.4774 1.06128 15.6813V7.22241H5.71858C6.73062 5.97982 8.27218 5.18618 9.99952 5.18618C11.7269 5.18618 13.2687 5.97982 14.2808 7.22241H18.9378V15.6813C18.9381 17.4774 17.4774 18.9384 15.6813 18.9384Z" fill="#5080EB"/>
<path d="M10.0005 15.0273C12.541 15.0273 14.6005 12.9678 14.6005 10.4272C14.6005 7.88666 12.541 5.82715 10.0005 5.82715C7.45991 5.82715 5.40039 7.88666 5.40039 10.4272C5.40039 12.9678 7.45991 15.0273 10.0005 15.0273Z" fill="#5080EB"/>
</svg>
