<svg viewBox="0 0 20 20" fill="none" xmlns="http://www.w3.org/2000/svg">
<path d="M4.54667 0.00982857C4.10064 0.0256844 3.52579 0.0605793 3.26451 0.113316C2.86567 0.193857 2.48902 0.315969 2.17579 0.475615C1.80777 0.66317 1.47793 0.902468 1.19313 1.18683C0.90767 1.47174 0.667414 1.80189 0.479107 2.17045C0.319907 2.48201 0.197862 2.85636 0.116978 3.25294C0.0631806 3.51686 0.0276003 4.09599 0.0114714 4.5449C0.00556478 4.72165 0.00226554 4.89849 0.00157488 5.07534L0 14.9231C0 15.0322 0.00332227 15.2697 0.00982862 15.4534C0.0256836 15.8994 0.0605774 16.4742 0.113347 16.7355C0.193855 17.1343 0.316003 17.511 0.475614 17.8242C0.663203 18.1923 0.902464 18.522 1.18683 18.8069C1.47174 19.0923 1.80192 19.3326 2.17045 19.5209C2.48203 19.6801 2.85639 19.8021 3.25293 19.883C3.51685 19.9368 4.09602 19.9724 4.54492 19.9885C4.72833 19.9951 4.96582 19.9984 5.07533 19.9984L14.9231 20C15.0322 20 15.2697 19.9967 15.4533 19.9902C15.8993 19.9743 16.4742 19.9394 16.7355 19.8867C17.1343 19.8061 17.511 19.684 17.8242 19.5244C18.1922 19.3368 18.522 19.0975 18.8068 18.8132C19.0923 18.5282 19.3325 18.1981 19.5209 17.8295C19.68 17.518 19.8021 17.1436 19.883 16.7471C19.9368 16.4831 19.9724 15.9039 19.9885 15.4551C19.9951 15.2716 19.9984 15.0342 19.9984 14.9247L20 5.07691C20 4.96781 19.9967 4.73029 19.9901 4.54664C19.9742 4.10065 19.9394 3.5258 19.8866 3.26451C19.8061 2.86567 19.684 2.48903 19.5244 2.1758C19.3368 1.80774 19.0975 1.47794 18.8132 1.1931C18.5282 0.907707 18.198 0.667416 17.8295 0.479107C17.5179 0.319906 17.1436 0.197828 16.747 0.11698C16.4831 0.0631809 15.9039 0.0276012 15.4551 0.011507C15.2716 0.00489807 15.0341 0.00157738 14.9246 0.00157738L5.0769 0C4.90012 0.000669479 4.72336 0.0039444 4.54667 0.00982857Z" fill="#5080EC"/>
<circle cx="9.33398" cy="9.33325" r="8" fill="white"/>
<path d="M10 0C8.02219 0 6.08879 0.58649 4.4443 1.6853C2.79981 2.78412 1.51809 4.3459 0.761209 6.17316C0.00433283 8.00043 -0.1937 10.0111 0.192152 11.9509C0.578004 13.8907 1.53041 15.6725 2.92894 17.0711C4.32746 18.4696 6.10929 19.422 8.0491 19.8078C9.98891 20.1937 11.9996 19.9957 13.8268 19.2388C15.6541 18.4819 17.2159 17.2002 18.3147 15.5557C19.4135 13.9112 20 11.9778 20 10C20 7.34783 18.9464 4.8043 17.0711 2.92893C15.1957 1.05357 12.6522 0 10 0V0ZM5.022 6.82C5.059 6.64247 5.1394 6.47688 5.256 6.338C5.32109 6.25632 5.40387 6.19047 5.4981 6.14543C5.59233 6.1004 5.69556 6.07734 5.8 6.078C6.388 6.078 6.976 6.078 7.564 6.078H14.07C14.286 6.07038 14.4974 6.14108 14.6654 6.27707C14.8334 6.41305 14.9465 6.60516 14.984 6.818V6.842C15.024 7.17217 14.9406 7.50547 14.75 7.778C14.5389 8.09497 14.267 8.36689 13.95 8.578C13.024 9.2 12.1 9.846 11.182 10.492C10.9274 10.6898 10.6525 10.8601 10.362 11C10.2464 11.0552 10.1196 11.0829 9.99159 11.0808C9.86353 11.0787 9.73771 11.0469 9.624 10.988C9.37019 10.8538 9.12444 10.7049 8.888 10.542C8.10134 10.0087 7.31867 9.46533 6.54 8.912C6.17926 8.68996 5.84393 8.42907 5.54 8.134C5.31754 7.91578 5.15026 7.64772 5.052 7.352C5.00004 7.17954 4.98976 6.99721 5.022 6.82ZM14.082 13.932C11.7527 13.932 9.42334 13.932 7.094 13.932H5.908C5.78797 13.9312 5.66928 13.9068 5.55868 13.8601C5.44809 13.8135 5.34778 13.7455 5.26346 13.6601C5.17914 13.5746 5.11248 13.4734 5.06728 13.3622C5.02207 13.251 4.99921 13.132 5 13.012C5 12.012 5 10.994 5 9.984C5 9.53 5 9.076 5 8.584C5.41 9.038 5.918 9.306 6.382 9.632C7.172 10.192 7.966 10.744 8.758 11.302C9.00341 11.4742 9.27302 11.609 9.558 11.702C9.84911 11.7925 10.1614 11.7883 10.45 11.69C10.7583 11.5873 11.0485 11.4368 11.31 11.244C12.338 10.524 13.374 9.812 14.402 9.09C14.602 8.948 14.786 8.782 14.986 8.62C14.986 8.82 14.986 9.04 14.986 9.252C14.986 10.506 14.976 11.76 14.986 13.012C14.9825 13.2522 14.8867 13.4818 14.7183 13.6531C14.55 13.8244 14.3221 13.9243 14.082 13.932Z" fill="#5080EC"/>
</svg>
