<svg fill="none" viewBox="0 0 28 28" xmlns="http://www.w3.org/2000/svg">
<path fill="#2C3036" fill-rule="evenodd" d="M16.7 16.7c-2.2 2.27-2.36 5.1-2.55 11.3 5.78 0 9.77-.02 11.83-2.02 2-2.06 2.02-6.24 2.02-11.83-6.2.2-9.03.35-11.3 2.55M0 14.15c0 5.59.02 9.77 2.02 11.83 2.06 2 6.05 2.02 11.83 2.02-.2-6.2-.35-9.03-2.55-11.3-2.27-2.2-5.1-2.36-11.3-2.55M13.85 0C8.08 0 4.08.02 2.02 2.02.02 4.08 0 8.26 0 13.85c6.2-.2 9.03-.35 11.3-2.55 2.2-2.27 2.36-5.1 2.55-11.3m2.85 11.3C14.5 9.03 14.34 6.2 14.15 0c5.78 0 9.77.02 11.83 2.02 2 2.06 2.02 6.24 2.02 11.83-6.2-.2-9.03-.35-11.3-2.55" clip-rule="evenodd"></path>
<path fill="url(#zen-icon--inline_paint0_linear)" fill-rule="evenodd" d="M16.7 16.7c-2.2 2.27-2.36 5.1-2.55 11.3 5.78 0 9.77-.02 11.83-2.02 2-2.06 2.02-6.24 2.02-11.83-6.2.2-9.03.35-11.3 2.55M0 14.15c0 5.59.02 9.77 2.02 11.83 2.06 2 6.05 2.02 11.83 2.02-.2-6.2-.35-9.03-2.55-11.3-2.27-2.2-5.1-2.36-11.3-2.55M13.85 0C8.08 0 4.08.02 2.02 2.02.02 4.08 0 8.26 0 13.85c6.2-.2 9.03-.35 11.3-2.55 2.2-2.27 2.36-5.1 2.55-11.3m2.85 11.3C14.5 9.03 14.34 6.2 14.15 0c5.78 0 9.77.02 11.83 2.02 2 2.06 2.02 6.24 2.02 11.83-6.2-.2-9.03-.35-11.3-2.55" clip-rule="evenodd"></path>
<path fill="#fff" fill-rule="evenodd" d="M28 14.15v-.3c-6.2-.2-9.03-.35-11.3-2.55-2.2-2.27-2.36-5.1-2.55-11.3h-.3c-.2 6.2-.35 9.03-2.55 11.3-2.27 2.2-5.1 2.36-11.3 2.55v.3c6.2.2 9.03.35 11.3 2.55 2.2 2.27 2.36 5.1 2.55 11.3h.3c.2-6.2.35-9.03 2.55-11.3 2.27-2.2 5.1-2.36 11.3-2.55" clip-rule="evenodd"></path>
</svg>
